<?xml version="1.0" encoding="UTF-8"?>
<svg width="512" height="180" version="1.1" viewBox="0 0 135.47 47.625" xmlns="http://www.w3.org/2000/svg" xmlns:xlink="http://www.w3.org/1999/xlink">
  <defs>
    <linearGradient id="6">
      <stop stop-color="#fe3a7c" offset="0"/>
      <stop stop-color="#ffa900" offset="1"/>
    </linearGradient>
    <linearGradient id="a" x1="61.135" x2="85.195" y1="122.27" y2="150.27" gradientTransform="translate(-.78884 -54.036)" gradientUnits="userSpaceOnUse" xlink:href="#6"/>
  </defs>
  <g transform="translate(-32.175 -55.939)" stroke-width=".26458">
    <g transform="matrix(.97101 0 0 .97214 .93275 1.5582)" fill="#fe3a7c" aria-label="s6n.jp">
      <path d="m41.167 77.467c0-0.9144 0.8128-1.4224 2.1336-1.4224 1.6764 0 2.6924 0.9144 3.4036 2.2352l6.5024-3.5052c-2.1336-3.6068-5.7912-5.4356-9.906-5.4356-5.2832 0-9.9568 2.794-9.9568 8.3312 0 8.7884 12.497 7.3152 12.497 10.109 0 1.016-0.9144 1.5748-2.7432 1.5748-2.2352 0-3.6576-1.0668-4.318-2.9972l-6.604 3.7592c1.9812 4.1148 5.842 6.0452 10.922 6.0452 5.4864 0 10.566-2.4892 10.566-8.3312 0-9.398-12.497-7.4676-12.497-10.363z"/>
      <path d="m104.22 69.339c-3.3528 0-5.8928 1.2192-7.2644 3.0988v-2.3876h-7.62v25.4h7.62v-13.868c0-3.6068 1.9304-5.2324 4.7244-5.2324 2.4384 0 4.4196 1.4732 4.4196 4.6228v14.478h7.62v-15.596c0-6.858-4.3688-10.516-9.4996-10.516z"/>
      <path d="m123.27 96.161c2.6416 0 4.826-2.1844 4.826-4.826s-2.1844-4.826-4.826-4.826-4.826 2.1844-4.826 4.826 2.1844 4.826 4.826 4.826z"/>
      <path d="m137.69 69.251c2.3039 0 4.2317-1.9278 4.2317-4.2317s-1.9278-4.2317-4.2317-4.2317-4.2317 1.9278-4.2317 4.2317 1.9278 4.2317 4.2317 4.2317zm-3.5264 25.578c0 2.492-1.1755 3.4324-3.7615 3.2913v6.7707c7.429 0.42317 10.814-2.7271 10.814-10.062v-23.509h-7.0528z" stroke-width=".24489"/>
      <path d="m160.45 70.662c-3.1503 0-5.4542 1.0814-7.0058 2.8681v-2.2099h-7.0528v32.913h7.0528v-11.614c1.5516 1.7867 3.8555 2.8681 7.0058 2.8681 6.1595 0 11.237-5.4072 11.237-12.413 0-7.0058-5.078-12.413-11.237-12.413zm-1.4106 18.149c-3.2443 0-5.5952-2.2099-5.5952-5.7363 0-3.5264 2.3509-5.7363 5.5952-5.7363 3.2443 0 5.5952 2.2099 5.5952 5.7363 0 3.5264-2.3509 5.7363-5.5952 5.7363z" stroke-width=".24489"/>
    </g>
    <g transform="matrix(.97101 0 0 .97214 .93275 1.5582)" fill="url(#a)" aria-label="6">
      <path d="m72.153 68.413 8.5795-12.474h-10.386l-12.079 18.344c-1.4676 2.2013-2.3142 4.9671-2.3142 8.0151 0 8.1844 5.9267 13.942 14.676 13.942 8.6924 0 14.676-5.7573 14.676-13.942 0-7.6764-5.3058-13.264-13.152-13.885zm-1.524 19.36c-3.048 0-5.6444-1.9756-5.6444-5.4751s2.5964-5.4751 5.6444-5.4751c2.9916 0 5.6444 2.032 5.6444 5.4751 0 3.4431-2.6529 5.4751-5.6444 5.4751z" fill="url(#a)"/>
    </g>
  </g>
</svg>
