<?xml version="1.0" standalone="no"?>
<!DOCTYPE svg PUBLIC "-//W3C//DTD SVG 20010904//EN"
 "http://www.w3.org/TR/2001/REC-SVG-20010904/DTD/svg10.dtd">
<svg version="1.0" xmlns="http://www.w3.org/2000/svg"
 width="700.000000pt" height="700.000000pt" viewBox="0 0 700.000000 700.000000"
 preserveAspectRatio="xMidYMid meet">
<metadata>
Created by potrace 1.14, written by Peter Selinger 2001-2017
</metadata>
<g transform="translate(0.000000,700.000000) scale(0.100000,-0.100000)"
fill="#000000" stroke="none">
<path d="M3346 6208 c-110 -169 -231 -353 -491 -748 -270 -410 -401 -609 -470
-715 -143 -218 -355 -540 -365 -555 -60 -87 -317 -483 -349 -539 -24 -40 -59
-107 -78 -149 -34 -75 -109 -285 -117 -326 -2 -11 -9 -39 -14 -61 -6 -22 -13
-56 -16 -75 -3 -19 -7 -44 -10 -55 -2 -11 -7 -45 -10 -75 -4 -30 -10 -73 -13
-95 -6 -47 -6 -381 0 -410 3 -11 8 -49 12 -85 5 -53 31 -182 60 -305 15 -63
75 -216 126 -320 60 -124 138 -248 216 -344 82 -101 250 -265 302 -295 9 -5
18 -12 21 -16 10 -14 156 -108 236 -152 244 -135 553 -226 864 -255 96 -9 412
-9 510 0 210 20 443 76 645 157 140 55 341 168 436 244 14 12 43 34 65 51 109
83 291 286 380 425 115 181 222 441 259 632 14 71 25 139 30 183 3 28 8 68 11
89 7 51 8 361 1 401 -3 17 -8 55 -12 85 -38 328 -184 694 -374 935 -150 191
-337 358 -523 466 -137 80 -387 188 -497 215 -9 2 -34 8 -56 14 -59 15 -176
39 -210 44 -17 2 -57 7 -90 11 -33 4 -68 8 -78 9 -9 1 -18 4 -20 7 -1 4 41 69
93 145 52 76 137 199 188 274 51 74 127 185 168 245 42 61 99 144 127 185 86
124 294 427 385 560 47 69 115 168 151 220 37 52 74 107 84 123 l17 27 -740 0
-741 0 -113 -172z m281 -2822 c258 -37 476 -183 587 -396 50 -95 64 -139 85
-270 8 -52 7 -178 -3 -230 -3 -19 -8 -48 -11 -65 -22 -128 -114 -287 -222
-384 -96 -87 -248 -167 -355 -187 -111 -20 -144 -23 -243 -20 -180 5 -350 61
-480 159 -52 39 -148 141 -166 175 -8 15 -16 29 -19 32 -15 13 -63 137 -80
206 -51 196 -18 455 77 614 44 74 127 168 188 214 104 78 264 140 395 153 30
3 56 6 57 7 5 5 142 -2 190 -8z"/>
</g>
</svg>
